{"title":"Pirates Of The Caribbean - 2 (2006) 720p Blu-ray AAC 5.1 Subs -D","uid":15611685,"size":1713778054,"categoryP":"video","categoryS":"hd___movies","magnet":"?xt=urn:btih:357f9232635645659fa9ce3a35c93618bd911ec5&amp;dn=Pirates+Of+The+Caribbean+-+2+%282006%29+720p+Blu-ray+AAC+5.1+Subs+-D&amp;tr=udp%3A%2F%2Ftracker.leechers-paradise.org%3A6969&amp;tr=udp%3A%2F%2Fzer0day.ch%3A1337&amp;tr=udp%3A%2F%2Fopen.demonii.com%3A1337&amp;tr=udp%3A%2F%2Ftracker.coppersurfer.tk%3A6969&amp;tr=udp%3A%2F%2Fexodus.desync.com%3A6969","seeders":2,"leechers":2,"uploader":"SaM","files":3,"time":1471790256,"description":"- HollyWooD Movie-\r\n\r\nPirates of the Caribbean\r\nThe Dead Mans's Chest\r\n** 2006 **\r\n720p / Blu-ray / x264\r\nEnglish AAC 5.1\r\nEnglish &amp; French subs \r\n \nhttp://extraimago.com/image/wcxW \nhttp://extraimago.com/image/wcxA \nhttp://extraimago.com/image/wcxv \nhttp://extraimago.com/image/wcxu \nhttp://extraimago.com/image/wcxV \nhttp://extraimago.com/image/wcxx \nhttp://extraimago.com/image/wcxt \nhttp://extraimago.com/image/wcxo \nhttp://extraimago.com/image/wcxk\r\n\r\nFile size : 1.59 GiB\r\nDuration : 2h 30mn\r\nOverall bit rate : 1 510 Kbps\r\n\r\nVideo\r\nFormat : AVC\r\nFormat/Info : Advanced Video Codec\r\nFormat profile :   \r\nFormat settings, CABAC : Yes\r\nFormat settings, ReFrames : 12 frames\r\nCodec ID : V_MPEG4/ISO/AVC\r\nDuration : 2h 30mn\r\nBit rate : 1 313 Kbps\r\nWidth : 1 280 pixels\r\nHeight : 534 pixels\r\nDisplay aspect ratio : 2.40:1\r\nFrame rate mode : Constant\r\nFrame rate : 23.976 (24000/1001) fps\r\ncolor space : YUV\r\nChroma subsampling : 4:2:0\r\nBit depth : 8 bits\r\nScan type : Progressive\r\nBits/(Pixel*Frame) : 0.080\r\nStream size : 1.38 GiB (87%)\r\n\r\nAudio\r\nFormat : AAC\r\nFormat/Info : Advanced Audio Codec\r\nFormat profile : LC\r\nCodec ID : A_AAC\r\nDuration : 2h 30mn\r\nBit rate : 192 Kbps\r\nChannel(s) : 6 channels\r\nChannel positions : Front: L C R, Side: L R, LFE\r\nSampling rate : 48.0 KHz\r\nFrame rate : 46.875 fps (1024 spf)\r\nCompression mode : Lossy\r\nDelay relative to video : 9ms\r\nStream size : 206 MiB (13%)\r\nLanguage : English\r\nDefault : Yes\r\nForced : No\r\n\r\n\r\nChapters = None\r\nSample : Included","torrent":{"xt":"urn:btih:357f9232635645659fa9ce3a35c93618bd911ec5","amp;dn":"Pirates+Of+The+Caribbean+-+2+%282006%29+720p+Blu-ray+AAC+5.1+Subs+-D","amp;tr":["udp%3A%2F%2Ftracker.leechers-paradise.org%3A6969","udp%3A%2F%2Fzer0day.ch%3A1337","udp%3A%2F%2Fopen.demonii.com%3A1337","udp%3A%2F%2Ftracker.coppersurfer.tk%3A6969","udp%3A%2F%2Fexodus.desync.com%3A6969"],"infoHash":"357f9232635645659fa9ce3a35c93618bd911ec5","infoHashBuffer":{"type":"Buffer","data":[53,127,146,50,99,86,69,101,159,169,206,58,53,201,54,24,189,145,30,197]},"announce":[],"urlList":[]}}